<svg
    viewBox="0 0 407 413"
    fill="none"
    xmlns="http://www.w3.org/2000/svg"
  >
    <g>
      <g>
        <g>
          <circle fill="#ff3e6c" cx="118.3" cy="215.2" r="53.2" />
        </g>
        <g>
          <g>
            <path
              fill="#ff3e6c"
              d="M252.8,80.7c-0.1,6.9-5.6,12.5-12.5,12.5c-6.9,0-12.5-5.6-12.5-12.5s5.6-12.5,12.5-12.5
					C247.2,68.2,252.9,71.5,252.8,80.7z"
            />
          </g>
          <g>
            <polygon
              fill="#ff3e6c"
              points="264,168.5 242.1,182.8 266.3,194.3 				"
            />
          </g>
          <g>
            <rect
              x="273.2"
              y="164.6"
              transform="matrix(0.9333 -0.359 0.359 0.9333 -42.1948 110.9837)"
              fill="#ff3e6c"
              width="9.1"
              height="9.1"
            />
          </g>
        </g>
      </g>
      <g>
        <g>
          <path
            fill="#000000"
            d="M175.8,331.6c1.1,5.8,3.1,9.9,5.4,13c0.2,0.3,0.4,0.5,0.6,0.8c0.5,0.6,1,1.1,1.5,1.6
				c0.3,0.3,0.5,0.5,0.8,0.7c2.7,2.4,5.6,3.8,8.1,4.9c6.3,2.7,6.6,9.6,6.6,9.6l-49.4-0.3c0.6-8.2,0.6-23.7,0.6-23.7
				C160.3,335.2,165.3,333.3,175.8,331.6z"
          />
        </g>
        <g>
          <path
            fill="#FFFFFF"
            d="M181.3,344.6c0.2,0.3,0.4,0.5,0.6,0.8c-2,0.9-4,1.9-6,2.8c-0.6,0.3-1.1-0.6-0.5-0.8
				C177.4,346.4,179.3,345.5,181.3,344.6z"
          />
        </g>
        <g>
          <path
            fill="#FFFFFF"
            d="M183.4,347c0.3,0.3,0.5,0.5,0.8,0.7c-2.2,1.1-4.5,2.1-6.7,3.2c-0.6,0.3-1.1-0.6-0.5-0.8
				C179.1,349,181.3,348,183.4,347z"
          />
        </g>
        <g>
          <path
            fill="#000000"
            d="M107.3,327.1c-4.6,3.7-7.3,7.4-8.9,10.9c-0.1,0.3-0.3,0.6-0.4,0.9c-0.3,0.7-0.5,1.4-0.7,2.1
				c-0.1,0.3-0.2,0.7-0.3,1c-0.8,3.5-0.7,6.8-0.5,9.5c0.5,6.8-5.4,10.3-5.4,10.3l-22.8-43.8c6.9-4.8,13.5-9.3,18.8-14.6
				C94.6,311,100.9,318.5,107.3,327.1z"
          />
        </g>
        <g>
          <path
            fill="#FFFFFF"
            d="M180.8,224.4c0,0-11.9-5-21.7-6.3c0.6-8.6,0.8-14.3,0.8-14.3l-31.6,2.1c-3.4,19.5-4.8,47.8-19.2,72.7
				c-6.5,11.3-17.7,20.3-29.4,30.4c6.5,8.9,16.9,20.6,23.5,29.5c1.9-3.1,30.1-18,44.5-56.3c-0.4,30.7-1.5,62.1-1.5,62.1L182,342
				C182,342,186.9,277.1,180.8,224.4z"
          />
          <path
            fill="#000000"
            d="M145.4,345l0-0.8c0-0.3,1-28.9,1.5-58c-11.8,28.4-31,43.1-39.3,49.5c-1.8,1.4-3.4,2.6-3.7,3.1l-0.6,1
				l-0.7-0.9c-3.1-4.2-7.2-9.1-11.1-13.8c-4.4-5.4-9-10.9-12.5-15.7l-0.4-0.6l0.5-0.5c1.2-1,2.4-2.1,3.6-3.1
				c10.2-8.8,19.8-17.1,25.6-27.1c11.6-20.1,14.7-42.4,17.3-60.4c0.6-4.3,1.2-8.4,1.8-12.1l0.1-0.6l33-2.2l0,0.8
				c0,0.1-0.2,5.5-0.8,13.6c9.7,1.4,21.1,6.2,21.2,6.3l0.4,0.2l0.1,0.4c6,52.1,1.2,117,1.2,117.7l0,0.7L145.4,345z M148.5,277.9
				l-0.1,4.3c-0.4,27.6-1.3,56.1-1.5,61.3l34.3-2.2c0.5-6.9,4.4-67.2-1.2-116.3c-2.2-0.9-12.5-5-21.1-6.1l-0.7-0.1l0.1-0.7
				c0.5-6.6,0.7-11.6,0.8-13.4l-30.2,2c-0.6,3.6-1.1,7.4-1.7,11.5c-2.6,18.1-5.7,40.6-17.4,60.9c-5.9,10.2-15.6,18.6-25.9,27.5
				c-1,0.9-2,1.8-3.1,2.6c3.4,4.6,7.8,9.9,12,15c3.7,4.5,7.5,9.1,10.6,13.1c0.7-0.6,1.8-1.5,3.4-2.7c8.6-6.6,28.9-22.2,40.4-52.7
				L148.5,277.9z"
          />
        </g>
        <g>
          <path
            fill="#FFFFFF"
            d="M98.4,337.9c-0.1,0.3-0.3,0.6-0.4,0.9c-1.8-1.3-3.5-2.7-5.3-4c-0.5-0.4,0-1.3,0.5-0.9
				C94.9,335.3,96.6,336.6,98.4,337.9z"
          />
        </g>
        <g>
          <path
            fill="#FFFFFF"
            d="M97.3,340.9c-0.1,0.3-0.2,0.7-0.3,1c-2-1.5-4-2.9-5.9-4.4c-0.5-0.4,0-1.3,0.5-0.9
				C93.5,338.1,95.4,339.5,97.3,340.9z"
          />
        </g>
        <g>
          <path
            fill="#000000"
            d="M150,277.3c-0.1,0-0.2,0-0.3-0.1c-0.4-0.1-0.6-0.6-0.4-1c7.1-18.5,9.8-39.8,9.8-40l0.1-0.6l0.6,0
				c0.1,0,5.6-0.3,9.3-1.3c0.4-0.1,0.8,0.1,0.9,0.5c0.1,0.4-0.1,0.8-0.5,0.9c-3.1,0.8-7.4,1.2-9,1.3c-0.5,3.7-3.3,22.9-9.8,39.7
				C150.6,277.1,150.3,277.3,150,277.3z"
          />
        </g>
      </g>
      <g>
        <g>
          <g>
            <path
              fill="#000000"
              d="M287.4,183.7c-31.9,0-57.8-25.9-57.8-57.8c0-0.4,0.3-0.8,0.8-0.8s0.8,0.3,0.8,0.8
					c0,31.1,25.3,56.3,56.3,56.3c9.2,0,18.3-2.3,26.3-6.5c0.4-0.2,0.8-0.1,1,0.3c0.2,0.4,0.1,0.8-0.3,1
					C306.2,181.3,296.8,183.7,287.4,183.7z"
            />
          </g>
          <g>
            <path
              fill="#000000"
              d="M297.3,122h-19.8c-0.4,0-0.8-0.3-0.8-0.8s0.3-0.8,0.8-0.8h19.8c0.4,0,0.8,0.3,0.8,0.8S297.7,122,297.3,122z
					"
            />
          </g>
          <g>
            <path
              fill="#000000"
              d="M297.3,131.3h-19.8c-0.4,0-0.8-0.3-0.8-0.8s0.3-0.8,0.8-0.8h19.8c0.4,0,0.8,0.3,0.8,0.8
					S297.7,131.3,297.3,131.3z"
            />
          </g>
          <g>
            <path
              fill="#000000"
              d="M292,161.9c-0.4,0-0.7-0.3-0.7-0.7c-0.1-0.4,0.2-0.8,0.6-0.8c2.1-0.3,4.2-0.7,6.2-1.4
					c0.4-0.1,0.8,0.1,0.9,0.5c0.1,0.4-0.1,0.8-0.5,0.9C296.5,161.1,294.3,161.6,292,161.9C292.1,161.9,292.1,161.9,292,161.9z"
            />
          </g>
          <g>
            <path
              fill="#000000"
              d="M308,155.6c-0.2,0-0.5-0.1-0.6-0.3c-0.2-0.3-0.2-0.8,0.2-1c2.8-2,5.4-4.4,7.5-7.2c0.3-0.3,0.7-0.4,1.1-0.1
					c0.3,0.3,0.4,0.7,0.1,1.1c-2.2,2.9-4.9,5.4-7.8,7.5C308.3,155.6,308.2,155.6,308,155.6z"
            />
          </g>
          <g>
            <path
              fill="#000000"
              d="M319,143c-0.1,0-0.2,0-0.3-0.1c-0.4-0.2-0.5-0.6-0.3-1c2.6-4.9,3.9-10.5,3.9-16.1
					c0-12.3-6.3-23.4-16.8-29.8c-0.4-0.2-0.5-0.7-0.3-1c0.2-0.4,0.7-0.5,1-0.3c11,6.7,17.5,18.3,17.5,31.1c0,5.8-1.4,11.6-4.1,16.8
					C319.6,142.8,319.3,143,319,143z"
            />
          </g>
          <g>
            <path
              fill="#000000"
              d="M263.9,99.8c-0.2,0-0.4-0.1-0.6-0.3c-0.3-0.3-0.2-0.8,0.1-1.1c6.6-5.8,15.1-9,24-9c2.5,0,4.9,0.2,7.3,0.7
					c0.4,0.1,0.7,0.5,0.6,0.9c-0.1,0.4-0.5,0.7-0.9,0.6c-2.3-0.5-4.7-0.7-7-0.7c-8.5,0-16.6,3.1-23,8.6
					C264.3,99.7,264.1,99.8,263.9,99.8z"
            />
          </g>
          <g>
            <path
              fill="#000000"
              d="M333.3,126.6c-0.4,0-0.8-0.3-0.8-0.8c0-1.5-0.1-3.1-0.2-4.6c-2.3-23.1-21.6-40.5-44.9-40.5
					c-0.4,0-0.8-0.3-0.8-0.8s0.3-0.8,0.8-0.8c24,0,43.9,18,46.3,41.8c0.2,1.6,0.2,3.2,0.2,4.8C334,126.2,333.7,126.6,333.3,126.6z"
            />
          </g>
          <g>
            <path
              fill="#000000"
              d="M266.4,85.9c-0.3,0-0.5-0.1-0.7-0.4c-0.2-0.4,0-0.8,0.3-1c4.1-2.1,8.5-3.6,13.1-4.5
					c0.4-0.1,0.8,0.2,0.9,0.6s-0.2,0.8-0.6,0.9c-4.4,0.8-8.7,2.3-12.7,4.3C266.6,85.8,266.5,85.9,266.4,85.9z"
            />
          </g>
          <g>
            <path
              fill="#000000"
              d="M276.2,171c-0.1,0-0.1,0-0.2,0c-11.8-3-22.2-10.7-28.5-21.2c-0.2-0.4-0.1-0.8,0.3-1c0.4-0.2,0.8-0.1,1,0.3
					c6.1,10.2,16.2,17.6,27.6,20.5c0.4,0.1,0.6,0.5,0.5,0.9C276.8,170.8,276.5,171,276.2,171z"
            />
          </g>
          <g>
            <path
              fill="#000000"
              d="M287.4,172.4c-0.4,0-0.8-0.3-0.8-0.8s0.3-0.8,0.8-0.8c10.3,0,20.4-3.6,28.4-10c0.3-0.3,0.8-0.2,1.1,0.1
					c0.3,0.3,0.2,0.8-0.1,1.1C308.5,168.7,298.1,172.4,287.4,172.4z"
            />
          </g>
          <g>
            <path
              fill="#000000"
              d="M340.7,147.2c-0.1,0-0.2,0-0.3-0.1c-0.4-0.1-0.6-0.6-0.4-1c2.5-6.5,3.8-13.3,3.8-20.3
					c0-15.2-6-29.5-16.9-40.2c-0.3-0.3-0.3-0.8,0-1.1c0.3-0.3,0.8-0.3,1.1,0c11.2,11,17.3,25.6,17.3,41.3c0,7.2-1.3,14.2-3.9,20.9
					C341.3,147,341,147.2,340.7,147.2z"
            />
          </g>
          <g>
            <path
              fill="#000000"
              d="M317.8,78.3c-0.1,0-0.3,0-0.4-0.1c-2.8-1.7-5.7-3.2-8.7-4.5c-0.4-0.2-0.6-0.6-0.4-1c0.2-0.4,0.6-0.6,1-0.4
					c3.1,1.3,6.1,2.8,8.9,4.6c0.4,0.2,0.5,0.7,0.2,1C318.3,78.1,318.1,78.3,317.8,78.3z"
            />
          </g>
          <g>
            <path
              fill="#000000"
              d="M237.2,99.4c-0.1,0-0.2,0-0.4-0.1c-0.4-0.2-0.5-0.7-0.3-1c7-12.8,18.4-22.5,32.2-27.2
					c6-2,12.3-3.1,18.7-3.1c0.4,0,0.8,0.3,0.8,0.8s-0.3,0.8-0.8,0.8c-6.2,0-12.4,1-18.2,3c-13.4,4.6-24.5,14-31.3,26.5
					C237.8,99.2,237.5,99.4,237.2,99.4z"
            />
          </g>
          <g>
            <path
              stroke="#000000"
              strokeWidth="1.5"
              strokeLinecap="round"
              strokeMiterlimit="10"
              d="M287.7,89.7"
            />
          </g>
          <g>
            <path
              fill="#000000"
              d="M252,129.7c-0.4,0-0.7-0.3-0.7-0.7c-0.1-1.1-0.2-2.3-0.2-3.4c0-5.9,1.4-11.7,4.1-16.9
					c0.2-0.4,0.6-0.5,1-0.3c0.4,0.2,0.5,0.6,0.3,1c-2.6,5-3.9,10.6-3.9,16.2c0,1.1,0.1,2.2,0.2,3.3
					C252.7,129.3,252.4,129.7,252,129.7C252,129.7,252,129.7,252,129.7z"
            />
          </g>
        </g>
        <g>
          <g>
            <path
              fill="#FFFFFF"
              d="M246.8,129l0.7-0.8c0.7-0.8,0.3-1.6-0.5-2.3c-2.8-2.9-5.6-3.8-9-2.7c-2.3-3.4-9.9,3.6-14.6,9.1
					c-1.4,1.7-3.5,3.7-5.8,5.8c2.3,5.7,4.2,11.6,6.4,17.3c0.3,0.9,0.7,1.8,1.1,2.6c1.6-2.3,3.3-4.4,5.1-6.2c1.4-1.4,2.4-2.8,3.3-4.1
					c2.8-2,6.4-6.4,6.4-6.4c0.9,0.9,2.4,0.3,5.7-2.4s1.8-5.2,1.8-5.2C249.2,131.2,246.8,129,246.8,129z"
            />
            <path
              fill="#000000"
              d="M224.9,159.5l-0.5-1.2c-0.4-0.9-0.7-1.8-1.1-2.6c-1.1-2.8-2.1-5.7-3.1-8.4c-1-2.9-2.1-5.9-3.3-8.8l-0.2-0.5
					l0.4-0.3c2.3-2,4.3-4,5.8-5.8c2.1-2.5,9.4-10.4,13.6-10.2c0.7,0,1.3,0.3,1.8,0.8c3.4-0.9,6.4,0,9.3,3c0.5,0.5,1.9,1.9,0.5,3.4
					l-0.3,0.3c0.8,1.1,1.6,2.9,0.3,4.8c0.5,1.2,0.4,3.5-2.1,5.7c-2.6,2.2-4.6,3.5-6,2.8c-1,1.2-3.7,4.2-6,5.9
					c-0.9,1.4-2,2.8-3.3,4.1c-1.6,1.6-3.1,3.5-5,6.1L224.9,159.5z M218.4,138.3c1.1,2.8,2.1,5.6,3.1,8.4c1,2.8,2,5.6,3.1,8.4
					c0.2,0.5,0.4,0.9,0.6,1.4c1.6-2.2,3-3.8,4.4-5.2c1.3-1.3,2.3-2.6,3.2-4l0.1-0.1l0.1-0.1c2.7-1.9,6.2-6.2,6.3-6.2l0.5-0.6
					l0.6,0.6c0.3,0.3,1.2,0.5,4.7-2.5c2.7-2.3,1.6-4.1,1.6-4.2l-0.3-0.5l0.3-0.4c1.5-1.8-0.3-3.6-0.4-3.7l-0.5-0.5l1.2-1.3
					c0.2-0.2,0.4-0.4-0.5-1.3c-2.7-2.7-5.2-3.5-8.2-2.5l-0.5,0.2l-0.3-0.5c-0.2-0.4-0.6-0.5-1-0.6c-2.6-0.1-8.1,4.8-12.4,9.7
					C222.5,134.4,220.6,136.3,218.4,138.3z"
            />
          </g>
          <g>
            <path
              fill="#000000"
              d="M226.2,129.7c0-0.5,0.1-1,0.4-1.4h-5.8c-0.4,0-0.8,0.3-0.8,0.8s0.3,0.8,0.8,0.8L226.2,129.7
					C226.2,129.7,226.2,129.7,226.2,129.7z"
            />
            <path
              fill="#000000"
              d="M251.9,128.2h-16.2c-0.1,0.6-0.3,1.1-0.8,1.5h16.9c0.4,0,0.8-0.3,0.8-0.8S252.3,128.2,251.9,128.2z"
            />
          </g>
          <g>
            <path
              fill="#000000"
              d="M219.8,135.9c-5.5,5.3-14,15.1-22.1,18.3c-10.1,4-27.9-17.8-40.5-16.5l3.2,21.9c0,0,10.6,21.9,30.2,26.2
					s39.6-30,39.7-30.1C227.8,149.9,224.4,139.9,219.8,135.9z"
            />
            <path
              fill="#000000"
              d="M194.1,187c-1.2,0-2.4-0.1-3.6-0.4c-19.7-4.4-30.6-26.4-30.7-26.6l-0.1-0.2l-3.3-22.7l0.8-0.1
					c6.4-0.6,13.9,4.3,21.1,9c7.4,4.9,14.4,9.4,19.2,7.5c6.4-2.5,13-9.3,18.4-14.7c1.2-1.3,2.4-2.4,3.5-3.5l0.5-0.5l0.5,0.4
					c3.8,3.3,6.7,10.4,9.1,16.1c0.6,1.4,1.1,2.7,1.6,3.9l0.2,0.5l-0.4,0.4C227.5,161.7,211.2,187,194.1,187z M161.2,159.4
					c0.8,1.6,11.3,21.6,29.6,25.7c17.2,3.8,35.1-23.6,38.7-29.5c-0.5-1.1-1-2.3-1.5-3.6c-2.2-5.3-4.8-11.9-8.2-15.1
					c-0.9,0.9-1.9,1.9-2.9,2.9c-5.4,5.5-12.2,12.4-18.9,15c-5.6,2.2-12.9-2.6-20.6-7.7c-6.6-4.3-13.4-8.8-19.1-8.8
					c-0.1,0-0.1,0-0.2,0L161.2,159.4z"
            />
          </g>
          <g>
            <path
              fill="#000000"
              d="M237.4,124.5c-0.9,2.4-2.3,4.3-4.3,6c-0.2,0.2-0.2,0.5,0,0.7c2.2,2.4,2,5.7-0.4,7.9
					c-0.5,0.4,0.2,1.1,0.7,0.7c2.1-1.9,3-4.8,1.8-7.5c-0.1-0.1-0.9-1.3-0.8-1.3c0.1-0.6,1.3-1.5,1.7-2c1-1.3,1.8-2.7,2.3-4.3
					C238.6,124.1,237.7,123.9,237.4,124.5z"
            />
          </g>
          <g>
            <path
              fill="#000000"
              d="M239.7,130.7c-2.5,1-2.9,4.1-0.7,5.7c0.5,0.4,1-0.5,0.5-0.9c-1.5-1-1.2-3.2,0.5-3.8
					C240.5,131.4,240.3,130.5,239.7,130.7z"
            />
          </g>
          <g>
            <path
              fill="#000000"
              d="M244.4,132.9c-1.9,1.1-6.9,4.2-5,7c0.4,0.5,1.2,0,0.9-0.5c-1.3-2,3.3-4.8,4.7-5.6
					C245.5,133.4,245,132.6,244.4,132.9z"
            />
          </g>
        </g>
        <g>
          <g>
            <polygon
              fill="#000000"
              points="148.5,135.6 146.8,139.9 165.7,142.1 166.6,133.3 				"
            />
          </g>
          <g>
            <path
              fill="#000000"
              d="M163.3,140.5c-10.6-8.2-32.4,6-35.9,18.1s-7.7,70.8-7.7,70.8l64.3-0.9c0,0-5.2-63.4-12.7-74.1
					S166.9,143.2,163.3,140.5z"
            />
          </g>
          <g>
            <path
              fill="#FFFFFF"
              d="M177.4,174.6c-0.3,0-0.7-0.2-0.7-0.6c0-0.1-1.3-6-4-15.2c-0.1-0.4,0.1-0.8,0.5-0.9c0.4-0.1,0.8,0.1,0.9,0.5
					c2.8,9.3,4,15.2,4,15.3c0.1,0.4-0.2,0.8-0.6,0.9C177.5,174.6,177.4,174.6,177.4,174.6z"
            />
          </g>
        </g>
        <g>
          <g>
            <path
              fill="#FFFFFF"
              d="M187.6,192.8h-5.2c-3.2,0-5.8-2.6-5.8-5.8v-6.3c0-3.2,2.6-5.8,5.8-5.8h5.2c0.4,0,0.8,0.3,0.8,0.8
					s-0.3,0.8-0.8,0.8h-5.2c-2.4,0-4.3,2-4.3,4.3v6.3c0,2.4,2,4.3,4.3,4.3h5.2c0.4,0,0.8,0.3,0.8,0.8S188,192.8,187.6,192.8z"
            />
          </g>
          <g>
            <path
              fill="#FFFFFF"
              d="M192.6,194.9L192.6,194.9c-4.5,0-8.2-3.7-8.2-8.2v-12.8h16.4v12.8C200.8,191.2,197.2,194.9,192.6,194.9z"
            />
            <path
              fill="#000000"
              d="M192.6,195.6c-4.9,0-8.9-4-8.9-8.9v-13.6h17.9v13.6C201.6,191.6,197.6,195.6,192.6,195.6z M185.2,174.6
					v12.1c0,4.1,3.3,7.4,7.4,7.4s7.4-3.3,7.4-7.4v-12.1H185.2z"
            />
          </g>
          <g>
            <path
              fill="#FFFFFF"
              d="M194.1,169.2c-0.4,0-0.7-0.3-0.7-0.6l-1.4-9.9c-0.1-0.4,0.2-0.8,0.6-0.9c0.4-0.1,0.8,0.2,0.9,0.6l1.4,9.9
					c0.1,0.4-0.2,0.8-0.6,0.9C194.1,169.2,194.1,169.2,194.1,169.2z"
            />
          </g>
          <g>
            <path
              fill="#FFFFFF"
              d="M189.1,169.9c-0.3,0-0.5-0.1-0.7-0.4l-2.3-4.3c-0.2-0.4-0.1-0.8,0.3-1c0.4-0.2,0.8-0.1,1,0.3l2.3,4.3
					c0.2,0.4,0.1,0.8-0.3,1C189.4,169.8,189.3,169.9,189.1,169.9z"
            />
          </g>
        </g>
        <g>
          <g>
            <path
              fill="#FFFFFF"
              d="M169.2,117c-3.3-7.3-11.3-10.8-17.8-7.8c-6.5,3-9.2,11.3-5.9,18.6c0,0,0,0,0,0.1c-0.7,0.3-1.3,0.7-1.7,1.1
					c-3.3,2.8-2.6,6.9,0.6,8.3c2.8,1.2,6.7,1,9.1-1.9c3.2,1.2,6.7,1.3,9.8,0.2C172.9,132.2,172.5,124.3,169.2,117z"
            />
            <path
              fill="#000000"
              d="M147.8,138.7c-1.3,0-2.6-0.3-3.7-0.8c-1.7-0.8-2.8-2.2-3.1-4c-0.3-2,0.6-4,2.4-5.6c0.4-0.3,0.8-0.6,1.3-0.9
					c-1.5-3.5-1.7-7.4-0.6-10.9c1.2-3.7,3.7-6.6,7-8.1c3.4-1.5,7.2-1.5,10.7,0.1c3.5,1.6,6.4,4.4,8.1,8.1l0,0
					c2.4,5.3,2.8,9.7,1.4,13.2c-1.2,2.9-3.8,5.1-7.6,6.4c-3.1,1.1-6.6,1.1-9.9,0C152,138,149.8,138.7,147.8,138.7z M156.3,108.9
					c-1.6,0-3.1,0.3-4.6,1c-3,1.3-5.2,3.9-6.2,7.2c-1,3.3-0.8,7,0.7,10.4l0.3,0.6l-0.6,0.4c-0.6,0.3-1.2,0.7-1.6,1
					c-1.4,1.2-2.1,2.7-1.8,4.2c0.2,1.3,1,2.3,2.2,2.8c2.4,1.1,6,1,8.3-1.7l0.3-0.4l0.5,0.2c3,1.2,6.3,1.3,9.3,0.2
					c3.4-1.2,5.7-3.1,6.8-5.6c1.3-3.1,0.9-7.1-1.3-12c-1.5-3.4-4.1-6-7.3-7.4C159.6,109.2,157.9,108.9,156.3,108.9z"
            />
          </g>
          <g>
            <ellipse
              transform="matrix(0.9996 -2.958225e-02 2.958225e-02 0.9996 -3.5181 4.7816)"
              fill="#000000"
              cx="159.8"
              cy="121.3"
              rx="1"
              ry="1"
            />
          </g>
          <g>
            <path
              fill="#000000"
              d="M168.2,122.2c-1.2-1.9-2.6-3.6-4.3-5.1c-0.5-0.4-1.2,0.3-0.7,0.7c1.6,1.4,3,3.1,4.2,4.9
					C167.7,123.2,168.5,122.7,168.2,122.2z"
            />
          </g>
          <g>
            <path
              fill="#000000"
              d="M159.6,111.1c-2.2,2.4-13.1,7.8-9,13.2c1,1.4,2.2,1.9,1.1,3.3c-1.3,1.2-2.5-0.3-2.5-0.3
					c-2,0.5-4.2,1.2-5.3,2.2c-5.3-4.6-5.3-10.4-2.9-12.3c0,0,14-20.1,20.5-14.8C167.2,107.2,159.6,111.1,159.6,111.1z"
            />
          </g>
          <g>
            <path
              fill="#000000"
              d="M150.8,131c-2.1-1-4.7-0.4-6.2,1.4c-0.4,0.5,0.3,1.2,0.7,0.7c1.2-1.5,3.2-2.1,5-1.2
					C150.9,132.2,151.3,131.3,150.8,131z"
            />
          </g>
        </g>
        <g>
          <g>
            <path
              fill="#FFFFFF"
              d="M182.7,185.5c0,0,2.5-5.9-0.5-6.3c-8.6-1-18.2,8.4-26.9,12.1c0,5.1,0.4,10.2,0.6,15.3
					c0.1,3.1,0.2,6.1,0.2,9.2c7.3-2.2,13.3-6,15.4-9.4c1.8-3.1,5.1-3.3,6.6-5.1c3,1.3,7.3-6.5,3.9-9.3
					C182.1,192,186,189,182.7,185.5z"
            />
            <path
              fill="#000000"
              d="M155.5,216.8l0-2.1c0-2.6-0.1-5.4-0.2-8.1c-0.1-1.7-0.2-3.4-0.3-5c-0.2-3.4-0.4-6.8-0.4-10.3l0-0.5l0.5-0.2
					c2.9-1.3,5.9-3.1,9-5.1c6.1-3.8,12.3-7.8,18.3-7.1c0.8,0.1,1.4,0.5,1.7,1.1c0.9,1.6,0,4.6-0.5,5.8c0.9,1.1,1.3,2.2,1.2,3.4
					c-0.1,1.5-1,2.6-1.6,3.3c1.6,1.9,1,5-0.4,7.2c-1.2,2.1-2.9,3.1-4.4,2.9c-0.7,0.6-1.5,1.1-2.4,1.5c-1.4,0.7-2.8,1.5-3.8,3.1
					c-2.2,3.7-8.4,7.5-15.8,9.8L155.5,216.8z M156.1,191.8c0,3.2,0.2,6.5,0.4,9.7c0.1,1.7,0.2,3.4,0.3,5.1c0.1,2.7,0.2,5.4,0.2,8.1
					l0,0.1c6.5-2.1,12.1-5.6,14-8.8c1.2-2,2.9-2.9,4.4-3.7c0.9-0.5,1.8-0.9,2.3-1.5l0.4-0.4l0.5,0.2c0.8,0.3,2.1-0.5,3-2.1
					c1.2-2,1.6-4.7,0.1-5.9l-0.7-0.6l0.7-0.6c0,0,1.5-1.2,1.6-2.8c0.1-0.9-0.3-1.8-1.1-2.6l-0.3-0.4l0.2-0.4
					c0.6-1.5,1.3-3.9,0.7-4.9c-0.1-0.2-0.2-0.3-0.6-0.4c-5.4-0.6-11.4,3.2-17.3,6.8C162,188.6,159,190.5,156.1,191.8z"
            />
          </g>
          <g>
            <path
              fill="#000000"
              d="M160.8,199.1c-0.9-3.1-1.6-6.2-2.3-9.3c-4.3,2.4-8.5,3.9-12.3,2.6c-10.5-3.6-14.4-22.8-2.3-32.3
					s13.2-22.4,13.2-22.4c-19.1,0.8-37.5,12.3-46,35.5c-9.6,26.4,2.9,39.8,12.8,44.5c11.4,5.3,32.3-0.7,41-5.7
					C163.5,207.8,162.1,203.5,160.8,199.1z"
            />
          </g>
          <g>
            <path
              fill="#000000"
              d="M182.2,184.6c-3.7-2-7.3,0.2-10.3,2.4c-0.5,0.4,0,1.2,0.5,0.9c2.7-2,6-4.2,9.3-2.4
					C182.3,185.7,182.8,184.9,182.2,184.6z"
            />
          </g>
          <g>
            <path
              fill="#000000"
              d="M181.2,190.9c-2.9-0.8-5.7,0.1-7.6,2.5c-0.4,0.5,0.3,1.2,0.7,0.7c1.6-2.1,4-2.9,6.6-2.2
					C181.6,192,181.8,191.1,181.2,190.9z"
            />
          </g>
          <g>
            <path
              fill="#000000"
              d="M178.7,198.1c-0.4,0.6-0.8,1.2-1.2,1.7c-0.4,0.5,0.5,1,0.9,0.5c0.4-0.6,0.8-1.2,1.2-1.7
					C179.9,198,179,197.5,178.7,198.1z"
            />
          </g>
          <g>
            <path
              fill="#FFFFFF"
              d="M149.4,193.3c-2.3,0-5.2-0.5-8.3-2c-3.3-1.6-5.6-4.1-6.6-7.3c-1.6-5-0.3-11.6,3.9-19.5
					c0.2-0.4,0.6-0.5,1-0.3c0.4,0.2,0.5,0.6,0.3,1c-3.9,7.4-5.2,13.8-3.8,18.3c0.9,2.8,2.9,5,5.8,6.4c7.5,3.6,13.2,0.7,13.3,0.7
					c0.4-0.2,0.8,0,1,0.3c0.2,0.4,0.1,0.8-0.3,1C155.6,192.1,153.2,193.3,149.4,193.3z"
            />
          </g>
          <g>
            <path
              fill="#FFFFFF"
              d="M138.4,220.2c-5.4,0-10.5-0.5-14.5-1.8c-0.4-0.1-0.6-0.6-0.5-0.9s0.6-0.6,0.9-0.5
					c11.6,3.8,34.4,0.4,40.5-1.9c0.4-0.2,0.8,0,1,0.4c0.1,0.4,0,0.8-0.4,1C161,218.2,149.3,220.2,138.4,220.2z"
            />
          </g>
        </g>
        <g>
          <g>
            <path
              fill="#ff3e6c"
              d="M219.4,99.5c-0.2,0-0.4-0.1-0.5-0.2c-0.3-0.3-0.3-0.8,0-1.1l6.6-6.6c0.3-0.3,0.8-0.3,1.1,0s0.3,0.8,0,1.1
					l-6.6,6.6C219.8,99.4,219.6,99.5,219.4,99.5z"
            />
          </g>
          <g>
            <path
              fill="#ff3e6c"
              d="M226.1,99.5c-0.2,0-0.4-0.1-0.5-0.2l-6.6-6.6c-0.3-0.3-0.3-0.8,0-1.1s0.8-0.3,1.1,0l6.6,6.6
					c0.3,0.3,0.3,0.8,0,1.1C226.4,99.4,226.2,99.5,226.1,99.5z"
            />
          </g>
        </g>
      </g>
    </g>
  </svg>
